<svg xmlns="http://www.w3.org/2000/svg" viewBox="0 0 1630 465" role="img" aria-label="I'TEA Supply"><path fill="#391A10" fill-rule="evenodd" d="M 315 0 L 331 1 L 343 5 L 352 13 L 359 24 L 362 35 L 362 45 L 359 57 L 352 67 L 343 75 L 238 138 L 230 144 L 226 152 L 225 163 L 224 314 L 222 326 L 215 337 L 206 345 L 195 349 L 184 349 L 173 346 L 163 340 L 156 330 L 152 319 L 151 305 L 151 150 L 155 132 L 163 116 L 176 103 L 190 93 L 300 27 L 306 21 L 309 14 Z M 139 79 L 155 79 L 171 84 L 184 92 L 192 104 L 195 116 L 194 127 L 190 137 L 182 146 L 171 153 L 137 169 L 108 184 L 85 201 L 66 222 L 52 247 L 42 276 L 36 307 L 36 340 L 42 371 L 53 401 L 69 428 L 90 451 L 116 470 L 145 484 L 178 493 L 213 496 L 249 493 L 281 484 L 311 469 L 337 449 L 358 424 L 374 396 L 384 366 L 388 333 L 386 300 L 379 269 L 367 239 L 350 213 L 328 190 L 302 171 L 273 157 L 260 149 L 251 139 L 247 128 L 247 116 L 250 105 L 257 96 L 266 88 L 278 84 L 290 84 L 303 88 L 337 105 L 369 126 L 396 151 L 420 180 L 439 213 L 454 250 L 463 289 L 466 331 L 463 373 L 453 414 L 437 451 L 415 486 L 389 517 L 357 543 L 322 563 L 283 578 L 242 586 L 199 588 L 155 584 L 114 573 L 76 556 L 42 533 L 13 505 L -11 472 L -29 436 L -41 396 L -47 354 L -47 310 L -41 269 L -28 230 L -9 193 L 16 161 L 46 132 L 80 109 L 118 90 Z M 132 167 L 145 169 L 155 176 L 162 186 L 165 198 L 163 211 L 156 222 L 146 230 L 134 233 L 121 231 L 110 225 L 102 215 L 99 203 L 100 190 L 106 179 L 116 171 Z M 116 238 L 129 238 L 140 243 L 148 252 L 152 263 L 152 318 L 154 337 L 161 354 L 171 367 L 184 377 L 200 382 L 218 382 L 235 377 L 249 368 L 260 355 L 267 339 L 269 322 L 269 272 L 251 272 L 240 268 L 232 261 L 227 251 L 227 241 L 230 232 L 236 224 L 245 219 L 255 218 L 269 218 L 269 198 L 272 187 L 279 179 L 289 174 L 300 174 L 310 178 L 318 185 L 322 195 L 322 218 L 341 218 L 352 221 L 360 228 L 365 238 L 365 249 L 361 258 L 354 266 L 344 270 L 322 270 L 322 322 L 318 349 L 307 374 L 289 396 L 267 414 L 241 426 L 213 430 L 185 427 L 159 417 L 136 402 L 117 381 L 105 356 L 99 330 L 99 263 L 102 252 L 108 244 Z M 566 87 L 579 88 L 591 94 L 600 104 L 604 116 L 602 129 L 596 140 L 586 149 L 574 153 L 561 151 L 550 145 L 542 135 L 538 123 L 539 110 L 545 99 L 554 91 Z M 553 163 L 566 160 L 579 163 L 588 171 L 593 181 L 593 413 L 589 424 L 581 433 L 570 438 L 557 438 L 546 433 L 538 424 L 534 413 L 534 184 L 538 173 L 545 166 Z M 673 99 L 685 99 L 695 104 L 702 112 L 704 122 L 701 132 L 660 175 L 651 180 L 641 181 L 632 177 L 625 169 L 623 159 L 626 149 L 665 106 Z M 792 103 L 993 103 L 1005 106 L 1014 113 L 1020 123 L 1020 135 L 1016 146 L 1007 154 L 997 159 L 790 159 L 778 156 L 768 148 L 763 137 L 763 126 L 767 116 L 775 108 Z M 856 178 L 869 176 L 881 181 L 889 190 L 892 201 L 892 414 L 888 426 L 879 434 L 868 438 L 855 437 L 845 431 L 837 422 L 834 410 L 834 204 L 837 192 L 845 183 Z M 1094 104 L 1277 104 L 1289 107 L 1298 115 L 1303 126 L 1302 138 L 1297 149 L 1288 156 L 1277 160 L 1102 160 L 1090 164 L 1080 170 L 1072 179 L 1067 190 L 1065 203 L 1064 224 L 1060 235 L 1052 244 L 1041 249 L 1029 249 L 1018 245 L 1009 237 L 1005 226 L 1006 197 L 1011 174 L 1022 154 L 1038 136 L 1058 121 L 1081 110 Z M 1114 252 L 1258 252 L 1270 255 L 1280 263 L 1285 274 L 1285 286 L 1281 297 L 1272 305 L 1261 309 L 1115 309 L 1102 312 L 1092 319 L 1085 328 L 1081 340 L 1081 353 L 1085 365 L 1092 375 L 1102 382 L 1115 385 L 1259 385 L 1271 388 L 1280 396 L 1285 407 L 1284 419 L 1279 430 L 1270 437 L 1258 440 L 1114 440 L 1088 436 L 1065 425 L 1046 409 L 1031 389 L 1022 366 L 1019 341 L 1023 317 L 1033 294 L 1049 275 L 1068 262 L 1090 254 Z M 1454 104 L 1468 105 L 1481 111 L 1491 122 L 1498 136 L 1597 385 L 1600 398 L 1597 411 L 1590 421 L 1579 429 L 1566 431 L 1554 427 L 1544 419 L 1538 408 L 1459 208 L 1380 408 L 1374 419 L 1364 427 L 1351 431 L 1338 428 L 1327 421 L 1320 410 L 1318 397 L 1322 384 L 1421 136 L 1428 122 L 1439 112 Z M 1458 315 L 1470 317 L 1480 325 L 1486 336 L 1487 348 L 1483 360 L 1475 370 L 1464 375 L 1452 375 L 1440 370 L 1432 360 L 1428 348 L 1429 336 L 1435 325 L 1445 318 Z M 1587 122 L 1597 122 L 1606 125 L 1612 132 L 1615 141 L 1615 163 L 1608 163 L 1608 141 L 1606 135 L 1601 132 L 1597 132 L 1597 163 L 1590 163 L 1590 132 L 1587 132 Z M 1617 122 L 1626 122 L 1633 145 L 1640 122 L 1649 122 L 1649 163 L 1642 163 L 1642 136 L 1635 163 L 1630 163 L 1624 136 L 1624 163 L 1617 163 Z"/></svg>